<svg width="86" height="95" viewBox="0 0 86 95" fill="none" xmlns="http://www.w3.org/2000/svg">
<path d="M41.7104 27.8306C54.8395 32.1364 66.4212 39.8229 75.4914 49.8358C76.9854 48.4981 78.7574 47.7137 80.6644 47.7137C81.2244 47.7137 81.7714 47.7948 82.3034 47.9235C85.6614 38.5521 86.8544 28.4563 85.3204 18.1913C85.3124 18.1278 85.2944 18.0679 85.2854 18.0044C79.1574 12.4806 72.0494 8.02847 64.2515 4.92993C55.9253 11.1111 48.2741 18.8117 41.7104 27.8306Z" fill="#1A7D12"/>
<path d="M9.9654 24.2966C12.3659 24.071 14.7877 23.9141 17.2482 23.9141C23.484 23.9141 29.5418 24.6544 35.3547 26.0291C42.0735 16.8851 49.9185 9.11055 58.4422 2.91876C52.1023 1.0258 45.3853 0 38.4286 0C30.3227 0 22.5446 1.39417 15.3041 3.92869C11.4142 9.19515 8.1993 14.9798 5.7124 21.1381C7.5472 21.7779 9.0453 22.8689 9.9654 24.2966Z" fill="#25A942"/>
<path d="M2.1873 36.5251C1.8594 36.6026 1.5334 36.6661 1.2091 36.7189C0.430001 41.1358 0 45.6726 0 50.3134C0 63.6787 3.3981 76.2332 9.3167 87.2297C10.5928 87.064 11.9182 87.064 13.2578 87.2121C13.9698 73.4061 17.4103 59.1031 23.9088 45.2884C25.9903 40.8609 28.3204 36.652 30.8479 32.6528C25.2236 31.3714 19.3685 30.6946 13.3529 30.6946C12.276 30.6946 11.2132 30.7563 10.1469 30.8039C8.8056 33.4212 5.8974 35.642 2.1873 36.5251Z" fill="#25A942"/>
<path d="M37.2547 34.4312C34.8295 38.3087 32.584 42.3802 30.5729 46.6579C23.9599 60.7159 20.5247 75.2744 19.9025 89.3042C22.467 90.6983 24.5327 92.6283 25.9833 94.8297C45.0998 90.7583 61.1988 80.4351 71.8954 66.7314C71.3474 65.0394 71.0354 63.1658 71.0354 61.1882C71.0354 59.5861 71.2474 58.0544 71.6114 56.6303C62.4079 46.4675 50.6218 38.7035 37.2547 34.4312Z" fill="#25A942"/>
</svg>
